<svg width="20" height="17" viewBox="0 0 20 17" fill="none" xmlns="http://www.w3.org/2000/svg">
<path fill-rule="evenodd" clip-rule="evenodd" d="M3.03399 2.30704C2.26592 3.00071 1.76687 4.08132 1.99496 5.67776C2.22335 7.2763 3.26497 8.93369 4.80439 10.5963C6.25868 12.1669 8.10965 13.6922 9.99999 15.1225C11.8903 13.6922 13.7413 12.1669 15.1956 10.5963C16.7351 8.93369 17.7767 7.27631 18.005 5.67777C18.2331 4.08132 17.734 3.00071 16.9659 2.30704C16.1767 1.5942 15.055 1.24847 14 1.24847C12.132 1.24847 11.0924 2.33326 10.5177 2.9329C10.4581 2.99508 10.4035 3.05203 10.3535 3.10203C10.1583 3.29729 9.84169 3.29729 9.64643 3.10203C9.59644 3.05203 9.54185 2.99508 9.48227 2.9329C8.9076 2.33326 7.868 1.24847 5.99999 1.24847C4.94498 1.24847 3.82328 1.5942 3.03399 2.30704ZM2.36374 1.56491C3.37372 0.652748 4.75205 0.248474 5.99999 0.248474C8.07126 0.248474 9.34543 1.36105 9.99999 2.0271C10.6545 1.36105 11.9287 0.248474 14 0.248474C15.2479 0.248474 16.6262 0.652749 17.6362 1.56491C18.6674 2.49623 19.2669 3.91563 18.995 5.81918C18.7233 7.72064 17.515 9.56326 15.9294 11.2757C14.3355 12.997 12.3064 14.6437 10.3 16.1485C10.1222 16.2818 9.87776 16.2818 9.69999 16.1485C7.69356 14.6437 5.66446 12.997 4.07063 11.2757C2.48506 9.56326 1.27668 7.72065 1.00501 5.81919C0.733043 3.91563 1.33253 2.49623 2.36374 1.56491Z" fill="#CB11AB"/>
</svg>
